<?xml version="1.0" standalone="no"?>
<!DOCTYPE svg PUBLIC "-//W3C//DTD SVG 20010904//EN"
 "http://www.w3.org/TR/2001/REC-SVG-20010904/DTD/svg10.dtd">
<svg version="1.0" xmlns="http://www.w3.org/2000/svg"
 width="694.000000pt" height="694.000000pt" viewBox="0 0 694.000000 694.000000"
 preserveAspectRatio="xMidYMid meet">
<metadata>
Created by potrace 1.11, written by Peter Selinger 2001-2013
</metadata>
<g transform="translate(0.000000,694.000000) scale(0.100000,-0.100000)"
fill="#000000" stroke="none">
<path d="M3049 6922 c-2 -5 -43 -52 -91 -103 -47 -52 -110 -121 -140 -154 -29
-34 -80 -91 -113 -129 -215 -242 -279 -383 -280 -611 0 -176 19 -274 80 -403
51 -109 120 -191 235 -283 65 -51 73 -55 66 -32 -8 24 -35 171 -43 233 -3 25
-7 52 -9 60 -1 8 -3 27 -3 42 -1 20 -9 32 -30 42 -60 31 -143 134 -179 221
-13 30 -13 30 15 -5 37 -48 115 -122 150 -142 l29 -17 -2 148 c-3 139 -4 151
-27 185 -23 34 -39 84 -51 166 -5 38 -2 32 31 -52 10 -27 26 -58 35 -70 l18
-23 1 25 c0 14 2 34 4 45 2 11 6 43 11 70 9 63 10 66 25 124 10 41 10 54 -3
82 -8 19 -16 57 -16 84 l-1 50 15 -55 c20 -73 28 -78 45 -28 30 92 149 298
173 298 5 0 2 -8 -6 -17 -18 -22 -68 -112 -68 -124 0 -12 43 -11 75 1 14 5 24
6 21 1 -8 -12 -96 -42 -106 -36 -9 6 -62 -128 -84 -210 -8 -30 -11 -57 -7 -60
20 -12 121 23 154 52 14 14 17 14 12 2 -9 -23 -109 -86 -149 -93 -30 -6 -36
-12 -41 -39 -3 -18 -7 -45 -10 -62 -3 -16 -8 -72 -12 -124 l-6 -93 24 7 c44
14 106 46 130 67 73 65 75 66 45 23 -51 -71 -147 -145 -189 -145 -14 0 -14 -7
-3 -167 10 -136 17 -159 47 -155 26 3 160 66 182 85 7 7 35 32 62 57 42 39 46
41 30 15 -60 -98 -185 -209 -251 -221 -23 -4 -34 -12 -34 -24 0 -27 61 -264
70 -274 13 -13 147 120 247 244 234 291 315 473 309 690 -3 86 -9 122 -35 199
-27 82 -45 119 -105 226 -6 11 -23 38 -37 60 -14 22 -36 65 -50 95 -86 196
-146 290 -160 252z"/>
<path d="M4150 6626 c-36 -13 -90 -33 -120 -44 -30 -11 -106 -34 -168 -51
-164 -45 -262 -95 -346 -176 l-39 -37 26 -82 c23 -71 25 -95 23 -196 -5 -164
-33 -238 -164 -433 -40 -60 -72 -113 -70 -118 2 -5 33 11 70 36 63 42 116 70
212 109 40 17 88 53 164 125 43 40 43 41 26 66 -21 32 -31 159 -15 195 11 23
11 23 7 2 -5 -29 21 -140 40 -170 l15 -22 40 46 c56 65 119 151 119 163 0 5
-9 25 -19 43 -11 18 -22 56 -26 83 l-5 50 17 -46 c10 -26 26 -57 35 -70 17
-24 18 -24 34 -4 9 11 34 57 56 103 l40 83 -28 55 c-15 30 -24 57 -21 61 4 3
7 0 7 -8 0 -18 46 -76 54 -68 3 3 12 34 21 70 l14 64 -4 -55 c-5 -62 -27 -144
-57 -207 -27 -58 -20 -68 25 -37 34 23 37 23 25 4 -7 -11 -32 -30 -55 -41 -29
-14 -50 -35 -69 -67 -15 -26 -47 -73 -71 -105 -23 -31 -43 -60 -43 -62 0 -10
52 4 93 24 23 11 42 19 44 18 8 -9 -116 -78 -148 -83 -23 -4 -47 -17 -62 -33
-13 -14 -51 -52 -85 -83 -34 -32 -59 -58 -55 -58 5 1 28 5 53 10 25 5 70 12
100 16 30 3 64 7 75 9 11 2 58 4 105 4 l86 1 32 57 c39 67 68 149 77 218 3 28
8 64 10 80 8 63 24 326 29 503 3 96 3 97 -104 58z"/>
<path d="M3940 5607 c-3 -2 -32 -7 -65 -10 -259 -25 -507 -135 -731 -324 -89
-74 -154 -135 -154 -142 0 -3 118 -6 263 -6 144 -1 298 -4 343 -8 l80 -8 75
73 c87 86 184 140 340 192 165 54 189 53 77 -3 -53 -26 -126 -69 -161 -94 -69
-49 -177 -154 -177 -172 0 -6 55 -18 128 -27 119 -16 148 -21 212 -33 14 -3
39 -8 55 -11 17 -3 35 -7 40 -8 70 -18 82 -17 133 9 28 14 82 32 119 39 73 14
215 12 278 -3 l40 -9 -45 -2 c-25 -1 -48 -2 -53 -1 -35 6 -267 -62 -267 -77 0
-4 37 -18 83 -31 117 -35 272 -93 371 -140 47 -22 88 -36 91 -31 11 17 139 28
200 16 17 -3 50 -12 75 -19 l45 -13 -85 0 c-77 1 -158 -8 -168 -18 -4 -5 16
-19 134 -95 50 -32 100 -66 110 -74 10 -9 37 -30 59 -47 66 -51 183 -169 248
-249 l61 -76 -80 75 c-43 42 -101 94 -129 115 -27 22 -59 48 -69 58 -11 9 -25
16 -31 14 -14 -5 -18 -148 -6 -194 16 -58 5 -50 -20 14 -16 41 -23 82 -25 141
l-2 82 -38 27 c-109 74 -385 223 -413 223 -7 0 -11 -27 -11 -73 0 -76 26 -188
60 -261 l20 -41 -25 30 c-70 84 -128 240 -124 328 l3 52 -89 34 c-119 44 -412
130 -449 131 -16 0 2 -124 29 -199 30 -83 62 -144 111 -214 19 -26 34 -50 34
-53 0 -3 -30 25 -67 63 -117 120 -199 266 -208 371 -2 25 -9 48 -15 52 -7 4
-38 11 -69 15 -31 4 -63 8 -72 10 -56 10 -176 22 -326 30 l-113 7 0 -57 c0
-149 88 -375 211 -541 21 -29 39 -56 39 -60 0 -14 -169 166 -220 234 -92 123
-159 274 -165 376 -1 23 -3 43 -4 46 0 3 -27 4 -58 4 -104 -3 -322 -15 -345
-19 -13 -2 -50 -6 -82 -9 -32 -2 -62 -9 -65 -14 -3 -5 -31 -15 -61 -22 -300
-68 -692 -262 -959 -474 -110 -87 -203 -176 -326 -311 -132 -145 -305 -420
-395 -630 -12 -27 -27 -63 -35 -80 -41 -92 -119 -360 -141 -480 -33 -187 -47
-337 -47 -490 0 -91 10 -274 17 -310 2 -11 7 -45 11 -75 3 -30 11 -71 15 -90
5 -19 12 -51 15 -70 35 -212 180 -554 332 -785 118 -179 196 -274 340 -418
309 -311 653 -519 1056 -641 154 -47 283 -73 462 -94 128 -15 560 -6 618 13 7
2 30 6 52 9 100 12 382 85 450 116 11 5 66 27 121 50 278 112 592 318 799 525
269 269 465 581 597 950 38 106 90 292 102 365 5 33 9 51 21 110 3 14 7 52 11
85 3 33 7 76 9 95 6 61 6 342 0 405 -19 209 -65 417 -130 590 -65 173 -88 191
-233 182 -52 -4 -97 -9 -100 -11 -4 -5 13 -51 53 -141 14 -31 75 -209 80 -235
2 -8 13 -55 24 -104 20 -81 32 -156 48 -274 8 -66 8 -328 0 -422 -71 -786
-540 -1474 -1242 -1824 -218 -108 -452 -184 -655 -212 -25 -3 -54 -8 -65 -10
-113 -22 -514 -21 -595 1 -8 2 -31 6 -50 9 -30 5 -62 11 -168 32 -47 9 -256
75 -283 89 -15 8 -33 15 -38 15 -13 0 -237 109 -301 146 -25 14 -72 44 -105
67 -244 166 -340 261 -585 587 -36 47 -70 91 -77 98 -21 21 -150 265 -166 312
-8 25 -29 81 -46 125 -82 210 -126 483 -126 770 1 131 9 261 20 330 5 26 13
72 31 165 8 44 55 203 79 270 125 349 345 669 627 911 118 102 124 106 216
168 207 138 408 236 642 312 94 30 162 35 213 15 55 -21 65 -31 172 -156 49
-58 94 -110 100 -116 5 -7 35 -40 65 -74 81 -93 255 -267 335 -336 222 -192
465 -312 707 -349 85 -13 306 -13 378 -1 14 3 43 7 65 11 22 3 48 8 57 11 9 3
26 7 39 9 66 13 198 57 399 134 92 35 267 85 340 97 14 2 84 21 155 41 136 38
205 66 205 84 0 17 -250 357 -323 439 -8 8 -42 53 -77 100 -251 336 -466 582
-610 702 -174 143 -375 226 -690 283 -44 8 -383 19 -390 12z"/>
<path d="M2875 4515 c-132 -37 -365 -136 -465 -196 -361 -221 -618 -487 -800
-833 -69 -130 -156 -351 -174 -442 -3 -11 -13 -64 -25 -119 -11 -55 -24 -129
-28 -165 -15 -124 -7 -540 12 -569 2 -4 6 -30 10 -60 22 -175 137 -479 261
-691 111 -190 294 -399 479 -547 183 -146 345 -238 590 -333 64 -25 164 -55
215 -65 8 -2 34 -8 56 -14 23 -6 62 -14 87 -16 25 -3 55 -8 67 -10 124 -24
399 -23 570 1 272 39 527 129 767 272 145 86 254 169 390 300 26 24 54 42 68
42 17 0 23 6 23 24 0 22 94 150 143 196 28 25 114 159 167 260 118 223 190
455 228 740 10 72 10 366 1 455 -17 153 -90 456 -119 493 -6 6 -8 12 -5 12 7
0 -60 152 -98 225 -58 109 -86 153 -101 159 -9 4 -51 -3 -93 -13 -216 -56
-298 -66 -521 -65 -130 0 -188 5 -272 23 -308 64 -574 206 -857 456 -114 100
-388 385 -463 480 -11 14 -22 24 -26 24 -4 -1 -43 -12 -87 -24z"/>
<path d="M3003 3 c236 -2 618 -2 850 0 232 1 40 2 -428 2 -467 0 -657 -1 -422
-2z"/>
</g>
</svg>
